<?xml version="1.0" encoding="utf-8"?>
<!-- Generator: Adobe Illustrator 19.2.0, SVG Export Plug-In . SVG Version: 6.00 Build 0)  -->
<svg version="1.1" id="Layer_1" xmlns="http://www.w3.org/2000/svg" xmlns:xlink="http://www.w3.org/1999/xlink" x="0px" y="0px"
	 width="1718.1px" height="389.9px" viewBox="0 0 1718.1 389.9" style="enable-background:new 0 0 1718.1 389.9;"
	 xml:space="preserve">
<style type="text/css">
	.st0{fill:#003FE2;}
</style>
<g>
	<path class="st0" d="M343.3,335.1c0,18.3,2.1,19.5,23.9,20.5v6.6h-87.4v-6.6c17.9-1,20-2.2,20-20.5v-56c0-18.3-2.1-19.5-18.7-20.5
		V252h76.8c24.7,0,39.2,2.4,49.7,7.3c11.3,5.3,18.7,13.1,18.7,24.4c0,22.7-26.3,34.5-55.8,36.2c-2.9,0.2-5.5,0.2-7.6,0.2l-19.7-2.9
		L343.3,335.1L343.3,335.1z M343.3,308.6c3.2,0.7,7.1,1.4,11.3,1.4c8.4,0,24.7-4.1,24.7-26.5c0-17.7-15-23.1-26.8-23.1
		c-8.7,0-9.2,0.8-9.2,6.1V308.6z"/>
	<path class="st0" d="M482.4,335.1c0,18.3,2.1,19.5,20.3,20.5v6.6h-85.3v-6.6c18.2-1,20.3-2.2,20.3-20.5v-56
		c0-18.3-2.1-19.5-20.3-20.5V252h85.3v6.6c-18.2,1-20.3,2.2-20.3,20.5L482.4,335.1L482.4,335.1z"/>
	<path class="st0" d="M633.3,284.3c-8.4-20.7-24.7-26.1-43.4-26.1c-31.6,0-51.1,22.1-51.1,46.5c0,31.2,23.7,51.3,50.8,51.3
		c22.9,0,36.1-9.5,49.5-28.2l11.6,1.2c-3.4,10-9.7,24.6-14.2,31.1c-6.6,1.2-30.3,4.8-47.9,4.8c-70.8,0-98.7-28.9-98.7-56.2
		c0-35.1,42.6-59.3,103.4-59.3c21.8,0,39.5,3.4,46.8,4.4c2.1,9.3,3.2,16.8,4.7,29.5L633.3,284.3z"/>
	<path class="st0" d="M747.1,335.1c0,18.3,2.1,19.5,24.2,20.5v6.6h-92.1v-6.6c21.1-1,23.2-2.2,23.2-20.5v-74.4h-4.5
		c-17.6,0-24.7,2-28.9,5.1c-3.2,2.5-6.3,7-9.7,16.5h-11.1c1.1-14.3,2.6-26,3.2-34.6h8.2c3.9,3.9,6.6,4.2,13.7,4.2h105
		c6.8,0,8.2-1,12.4-4.2h8.2c0.3,7.1,1.6,21.6,2.9,34.1l-11.6,0.5c-3.9-10.2-6.8-14.6-10.8-17.5c-4.5-3.1-13.2-4.1-25.8-4.1h-6.3
		v74.4H747.1z"/>
	<path class="st0" d="M888.6,251.9v6.6c-17.4,1-19.5,2.2-19.5,20.5v34.6c0,24.1,13.2,37.9,36.6,37.9c26.8,0,41.6-14.9,41.6-43v-10.2
		c0-16.6-1.1-26-2.1-31.2c-1.3-5.9-8.4-8.2-25.8-8.7v-6.6H986v6.6c-12.6,0.3-19.5,2.7-20.8,8.7c-1.1,5.3-2.1,14.6-2.1,31.2v13.1
		c0,14.6-4.2,30.1-18.9,40.6c-11.6,8.1-31.6,12.7-50,12.7c-18.9,0-36.8-2.2-49.7-9.2c-13.9-7.3-20-19.5-20-39.4v-37.2
		c0-18.3-2.1-19.5-20.5-20.5v-6.6L888.6,251.9L888.6,251.9z"/>
	<path class="st0" d="M1052.4,335.1c0,18.3,2.1,19.5,20.3,20.5v6.6h-83.2v-6.6c18.7-1,20.8-2.2,20.8-20.5v-56
		c0-18.3-2.1-19.5-19.7-20.5V252h82.1c20.5,0,34.2,1.5,44.5,5.8c10.5,4.2,18.4,11.9,18.4,21.9c0,14.9-14.5,23.8-33.9,28.7
		c3.7,4.8,13.4,16.5,21.1,24.3c8.9,9,14.7,14.8,18.9,18.2c4.7,3.6,8.9,5.8,15.5,7.1l-0.5,5.9l-11.3-0.2
		c-37.4-0.5-46.1-5.6-56.6-15.5c-7.9-7.3-15.3-17.8-21.8-27.3c-2.4-3.6-6.1-6.1-11.1-6.1h-3.4L1052.4,335.1L1052.4,335.1z
		 M1052.4,306.7h3.7c8.4,0,14.7-0.5,19.7-2.9c10.8-5.4,14.7-13.4,14.7-21.7c0-16.3-16.1-21.7-26.3-21.7c-11.1,0-11.8,0.5-11.8,7.3
		L1052.4,306.7L1052.4,306.7z"/>
	<path class="st0" d="M1171.6,279.1c0-18.3-2.1-19.5-19.7-20.5V252h124.7c0.3,2.9,1.6,15.3,2.9,28l-11.6,0.5
		c-2.6-8.3-5.5-13.1-9.7-15.8c-4.2-2.9-12.9-3.9-26.8-3.9h-4.5c-10,0-10.5,0-10.5,5.9v32.8h13.2c22.6,0,23.4-1,26.1-13.9h11.6v40.1
		h-11.6c-2.6-14.9-3.4-16-26.1-16h-13.2v27.7c0,8.8,0.5,13.1,5.3,14.6c4.2,1.4,10.3,1.5,18.4,1.5c10.5,0,22.1-1,27.9-5.1
		c4.5-3.1,8.9-9.3,12.9-17.5l11.6,1.2c-1.3,8.3-6.8,25.6-9.2,30.2h-133.9v-6.6c20.3-1,22.4-2.2,22.4-20.5v-56.1L1171.6,279.1
		L1171.6,279.1z"/>
	<path class="st0" d="M1299.1,327.3c5.5,9.8,21.1,28.7,46.8,28.7c13.7,0,24.2-5.8,24.2-16.8c0-10-10-16-26.3-20.4l-3.9-1.2
		c-21.8-6.3-46.1-15.3-46.1-33.4c0-19.2,21.6-34.8,62.9-34.8c8.2,0,16.6,0.7,24.2,2c6.1,1,10.3,1.7,13.7,2.4
		c1.1,6.6,2.9,14.9,5.8,26.5l-11.6,1.2c-5.8-11.2-15-23.3-35.8-23.3c-13.4,0-22.9,6.6-22.9,14.8c0,8.5,10,13.6,27.1,18.3l5.8,1.7
		c24.2,7,45,15.8,45,35.7c0,20.9-26,36.2-66.8,36.2c-10.5,0-21.3-1.4-28.4-2.9c-7.9-1.7-13.4-3.1-16.6-4.1c-2.1-7.8-5.5-17-8.7-28.4
		L1299.1,327.3z"/>
	<path class="st0" d="M1703.9,56.4c3.1,0,5.8,1.1,8,3.3s3.3,4.9,3.3,8s-1.1,5.8-3.3,8c-2.2,2.2-4.9,3.3-8,3.3s-5.8-1.1-8-3.3
		c-2.2-2.2-3.3-4.9-3.3-8s1.1-5.8,3.3-8C1698.1,57.5,1700.8,56.4,1703.9,56.4z M1717.1,67.7c0-3.6-1.3-6.7-3.8-9.3
		c-2.6-2.6-5.7-3.8-9.3-3.8c-3.6,0-6.7,1.3-9.2,3.8c-2.6,2.6-3.8,5.6-3.8,9.3c0,3.6,1.3,6.8,3.8,9.3c2.6,2.6,5.6,3.9,9.3,3.9
		c3.6,0,6.7-1.3,9.3-3.9C1715.8,74.4,1717.1,71.3,1717.1,67.7z M1707.4,64.9c0,1.1-0.5,1.8-1.5,2.2c-0.5,0.2-1.4,0.3-2.4,0.3h-2.3
		v-5.1h2.2c1.4,0,2.4,0.2,3.1,0.5C1707.1,63.2,1707.4,63.9,1707.4,64.9z M1698.6,60.5v14.4h2.5v-5.6h2c1.4,0,2.3,0.1,2.9,0.5
		c0.9,0.5,1.4,1.6,1.4,3.3v1.1v0.5c0,0.1,0,0.1,0,0.2V75h2.4l-0.1-0.2c-0.1-0.1-0.1-0.4-0.1-0.7c0-0.4,0-0.7,0-1.1v-1
		c0-0.7-0.3-1.5-0.8-2.2c-0.5-0.8-1.3-1.2-2.5-1.4c0.9-0.1,1.6-0.4,2.1-0.7c0.9-0.6,1.4-1.6,1.4-2.8c0-1.8-0.8-3-2.2-3.7
		c-0.8-0.3-2.2-0.5-4-0.5h-5L1698.6,60.5L1698.6,60.5z"/>
	<path class="st0" d="M1643.3,103.8l-5.8-1.7c-17.2-4.7-27.3-9.7-27.3-18.1c0-8,9.6-14.6,23.1-14.6c21,0,30.2,11.9,36.1,22.9
		l11.7-1.2c-2.9-11.4-4.8-19.6-5.8-26.1c-3.5-0.7-7.7-1.3-13.8-2.3c-7.7-1.3-16.2-2-24.4-2c-41.7,0-63.4,15.4-63.4,34.3
		c0,17.9,24.4,26.8,46.4,33l4,1.2c16.5,4.3,26.5,10.2,26.5,20.1c0,10.9-10.6,16.6-24.4,16.6c-26,0-41.7-18.6-47.2-28.3l-11.7,2.2
		c2.8,10,5.9,18.3,8,25.4c-8.8-1-15.8-3.6-28.2-14.2c-16.5-14.1-33.7-29.5-49.9-45.4c11-8.2,24-16.7,38.2-25.4
		c13.6-8.5,21.7-10.6,36.6-11.6v-5.3h-70v5.3l9.9,0.7c7.1,0.5,4.2,5.1,0.5,8.1c-15.2,12.7-31.1,25.1-50.2,38.8V90.1
		c0-18.1,2.1-20.5,19.3-21.5v-5.3h-81.6v5.3c18.3,1,20.4,3.4,20.4,21.5v55.3c0,10.7-0.8,16.7-4.8,19c-6.1,2.8-10.4,1-14.9-2.4
		c-4.2-3.3-10-10.3-18.9-19.1c-7.6-7.7-17.4-19.3-21-23.9c19.5-4.9,33.9-13.6,33.9-28.3c0-9.9-7.9-17.4-18.4-21.6
		c-10.3-4.2-23.9-5.7-44.5-5.7h-83.6l1.5,5.3c17.6,1,18.2,3.4,18.2,21.5v55.3c0,18.1-2.1,20.5-20.8,21.5v5.3h84.7V167
		c-18.1-1-20.3-3.4-20.3-21.5v-20.1h3.4c5,0,8.7,2.5,11,6c6.6,9.4,13.9,19.8,21.8,27c10.5,9.7,19.1,16,55.7,15.2
		c2.8,0,13.2-0.7,15.6-1.3h63.8V167c-18.6-1-21.2-3.4-20.6-21.5v-26.8h0.5c19.1,18.2,46.4,42.9,56.3,53.6h60.1v-3.5
		c3.3,0.9,7.8,1.9,13.7,3.1c7.2,1.5,18,2.8,28.7,2.8c41.1,0,67.4-15.1,67.4-35.7C1688.7,119.4,1667.8,110.7,1643.3,103.8z
		 M1334.8,114.6c-5,2.3-11.3,2.8-19.7,2.8h-3.7V78.9c0-6.7,0.8-8.4,11.8-8.4c10.3,0,26.3,6.6,26.3,22.7
		C1349.5,101.3,1345.5,109.2,1334.8,114.6z"/>
	<path class="st0" d="M1267.7,116.4c0-33.2-37.8-55.6-86.9-55.6c-38.6,0-64.4,11.4-78.9,26.3c8.8-17.2,14.7-28.1,15.6-29.4
		c12.5-20.2,15.8-22.1,36.4-24V26h-87.8v7.7l13.9,0.9c15.8,0.9,16.9,4.7,12.1,17.8c-5.1,13.5-18.7,46-31.6,72.8l-0.7-1.2L1004,26.1
		h-25.7L930.2,124l-0.7,1.2L894.6,48c-4.4-9.4-3.3-12.3,10.3-13.4l11.8-0.9V26H801.9v7.7c16.9,1.4,23.5,3.5,33.4,22.6l4.5,8.7h-54.7
		l-40.9,67.2L697.4,65h-62.9v5.4c21.1,1.2,23.3,4.3,21.4,25.7l-2.9,34.3c-1.3,15.4-2.9,24.4-4.3,29.7c-0.5,1.8-0.7,4-2.3,4.3
		c-1.8,0.3-5.9-6.1-9.4-12.3c-9.8-17.3-20.8-37.3-31.9-57.5l-17.5-32.1l-17.7,2.4l-51.4,87.7c-0.6,1-1.2,1.9-1.7,2.8
		c-2,2.6-4,5.9-6,7.3c-5.8,4.1-20.6,5.1-31.1,5.1c-8.1,0-14.1-0.2-18.3-1.5c-4.7-1.5-5.2-7-5.2-15.8v-27.7h13.1
		c22.5,0,23.3,1,25.9,16h11.5v-40h-11.5c-2.6,12.9-3.4,13.9-25.9,13.9h-13.1V79.8c0-5.9,0.5-7.2,10.4-7.2h4.4
		c13.8,0,22.5,1,26.7,3.9c4.2,2.7,7.1,8.7,9.7,17l11.5-0.5c-1.3-12.7-2.6-25.1-2.9-28H392v5.4c17.5,1,19.6,3.4,19.6,21.8v56
		c0,16.1-1.6,19-15.8,20.1c-2.5-1.2-4.8-2.7-7.2-4.5c-4.1-3.4-9.8-9.2-18.6-18.2c-7.5-7.8-17.1-19.5-20.7-24.3
		c19.1-4.9,33.3-13.7,33.3-28.7c0-10-7.8-17.6-18.1-21.9c-10.1-4.2-23.5-5.8-43.7-5.8h-78.9c-5.7-7.4-13.3-13.8-21.6-18.7
		C195.5,31.4,157.7,26,112.2,26H4v8.9c24.1,1.4,27,3,27,27.5v74.9c0,24.5-3,27.4-30,28.7v7.6h95.6c85.6,0,155.6-24.3,155.6-80.8
		c0-7.9-2.4-15.3-6.3-22.1c12.2,1.4,13.9,5.2,13.9,21.3v56c0,18.3-2.1,20.7-20.4,21.8v5.4h81.5v-5.4c-17.8-1-19.9-3.4-19.9-21.8
		v-20.2h3.4c4.9,0,8.5,2.5,10.9,6.1c6.5,9.5,13.7,20,21.5,27.3c10.3,9.8,18.9,14.9,55.6,15.4c5.3-0.2,8.7-0.8,10.5-1.4h90h29.5h30.4
		v-5.4l-7.5-0.5c-11.8-0.8-12.1-3.8-8.5-11.1l7.7-16.3h42.2l9.3,17.3c3.3,6.1,2.8,9-6.7,9.9l-7.7,0.7v5.4h47.5h33.3h32.8v-5.4
		c-17.4-0.8-23.3-3.6-24.3-9.9c-1.1-5.3-1.3-13.4-0.5-28l1.9-37.7h0.5l49,79.1h14.5l51.6-85h1.1l0.8,59.7
		c0.3,18.8-0.5,20.6-20.6,21.8v5.4H853v-5.4c-19.3-1.2-19.8-2.9-20.6-21.8l-2.7-56.8c-0.7-15.4,0-18.9,13.4-20.3l54.5,106h28.3
		l49.2-93.3h0.7l54,93.3h28.3c10.6-22.8,21-44.2,30.1-62.5c-0.2,1.6-0.3,3.2-0.3,4.8c0,30.8,35.1,55.4,89.3,55.4
		C1228.5,174.7,1267.7,152.2,1267.7,116.4z M119.9,163c-17.8,0-25.9-5.1-25.9-25.3V50.5c0-5.7,0.4-10.9,2.2-11.3
		c2.6-0.9,7.4-1.6,15.9-1.6c31.5,0,71.8,13.6,71.8,62.5C184,140.2,151.8,163,119.9,163z M324,117c-4.9,2.4-11.1,2.9-19.4,2.9H301
		v-39c0-6.8,0.8-8.5,11.6-8.5c10.1,0,25.8,6.7,25.8,23C338.5,103.6,334.6,111.5,324,117z M548.9,131.9l16-32.4h0.8l16.2,32.4H548.9z
		 M1182.1,166c-26.3,0-44.5-22.1-44.5-52.4c0-29.3,17.2-44,37.8-44c23.1,0,42.4,18.6,42.4,52.2C1217.8,152.1,1205.2,166,1182.1,166z
		"/>
	<path class="st0" d="M767.7,221.2c1.9,3.6,7.3,10.6,16.2,10.6c4.7,0,8.4-2.1,8.4-6.2c0-3.7-3.5-5.9-9.1-7.5l-1.4-0.4
		c-7.6-2.3-15.9-5.6-15.9-12.3c0-7.1,7.5-12.8,21.8-12.8c2.8,0,5.7,0.2,8.4,0.8c2.1,0.4,3.5,0.6,4.7,0.9c0.4,2.4,1,5.5,2,9.7l-4,0.4
		c-2-4.1-5.2-8.6-12.4-8.6c-4.6,0-7.9,2.4-7.9,5.4c0,3.1,3.5,5,9.4,6.8l2,0.6c8.4,2.6,15.6,5.8,15.6,13.1c0,7.7-9,13.3-23.1,13.3
		c-3.6,0-7.4-0.5-9.8-1.1c-2.7-0.6-4.6-1.1-5.7-1.5c-0.7-2.9-1.9-6.3-3-10.4L767.7,221.2z"/>
	<path class="st0" d="M828.5,224c-0.2,6.7,0.7,7.2,7.2,7.6v2.4h-28.4v-2.4c5.9-0.4,6.6-0.8,6.6-7.6v-20.6c0-6.8-0.7-7.2-7.1-7.6
		v-2.4h28.4v2.4c-6,0.4-6.7,0.8-6.7,7.6v9.7c6.6-5.1,12.2-9.7,17.5-14.5c1.3-1.1,2.3-2.4-0.2-2.6l-3.5-0.3v-2.4h24.4v2.4
		c-5.2,0.4-8,0.7-12.7,3.9c-4.9,3.3-9.5,6.4-13.3,9.5c5.6,5.9,11.7,11.7,17.4,16.9c4.9,4.5,6.6,5.1,10.3,5.4v2.4h-20.9
		c-3.4-4-12.1-13.2-18.7-20h-0.2L828.5,224L828.5,224z"/>
	<path class="st0" d="M914.7,205.7c-2.7-8.3-10.3-9.9-16.2-9.9c-9.6,0-17.7,6.6-17.7,17.3c0,9.7,6,18.8,18.6,18.8
		c2.3,0,3.7-0.5,3.7-3.4v-6c0-4.2-0.4-4.6-9.9-5.1v-2.8h30.4v2.8c-4.6,0.6-5,0.7-5,5.1v4.5c0,2.3,0.1,4.2,0.5,5.7
		c-5.6,1.1-13,2.5-20.6,2.5c-21.8,0-34.7-8.1-34.7-20.8c0-14.3,16.6-21.7,35.9-21.7c7,0,14.2,1.1,17.4,1.6c0.3,2.1,0.7,5.4,1.5,11.4
		L914.7,205.7L914.7,205.7z"/>
	<rect x="-1" y="211.7" class="st0" width="747.1" height="4.1"/>
	<rect x="939.9" y="211.7" class="st0" width="747.1" height="4.1"/>
</g>
</svg>
